<svg xmlns="http://www.w3.org/2000/svg" width="148.5" height="35" viewBox="0 0 148.5 35"><rect class="svg__rect" x="0" y="0" width="68.6" height="35" fill="#31C4F3"/><rect class="svg__rect" x="66.6" y="0" width="81.89999999999999" height="35" fill="#389AD5"/><path class="svg__text" d="M15.69 22L14.22 22L14.22 13.47L16.14 13.47L18.60 20.01L21.06 13.47L22.97 13.47L22.97 22L21.49 22L21.49 19.19L21.64 15.43L19.12 22L18.06 22L15.55 15.43L15.69 19.19L15.69 22ZM28.49 22L26.95 22L30.17 13.47L31.50 13.47L34.73 22L33.18 22L32.49 20.01L29.18 20.01L28.49 22ZM30.83 15.28L29.60 18.82L32.07 18.82L30.83 15.28ZM40.17 22L38.69 22L38.69 13.47L40.17 13.47L40.17 17.47L40.99 16.46L43.48 13.47L45.28 13.47L42.11 17.25L45.46 22L43.70 22L41.14 18.31L40.17 19.34L40.17 22ZM54.82 22L49.24 22L49.24 13.47L54.78 13.47L54.78 14.66L50.72 14.66L50.72 17.02L54.23 17.02L54.23 18.19L50.72 18.19L50.72 20.82L54.82 20.82L54.82 22Z" fill="#FFFFFF"/><path class="svg__text" d="M83.17 22L80.79 22L80.79 13.60L84.63 13.60Q85.77 13.60 86.61 13.98Q87.45 14.35 87.91 15.06Q88.36 15.76 88.36 16.71L88.36 16.71Q88.36 17.62 87.94 18.30Q87.51 18.98 86.72 19.36L86.72 19.36L88.53 22L85.99 22L84.46 19.77L83.17 19.77L83.17 22ZM83.17 15.47L83.17 17.93L84.49 17.93Q85.22 17.93 85.59 17.61Q85.96 17.29 85.96 16.71L85.96 16.71Q85.96 16.12 85.59 15.79Q85.22 15.47 84.49 15.47L84.49 15.47L83.17 15.47ZM99.90 22L93.15 22L93.15 13.60L99.74 13.60L99.74 15.44L95.51 15.44L95.51 16.85L99.24 16.85L99.24 18.63L95.51 18.63L95.51 20.17L99.90 20.17L99.90 22ZM106.12 22L103.69 22L107.40 13.60L109.74 13.60L113.46 22L110.99 22L110.33 20.37L106.78 20.37L106.12 22ZM108.56 15.93L107.47 18.61L109.63 18.61L108.56 15.93ZM117.19 17.80L117.19 17.80Q117.19 16.54 117.78 15.54Q118.38 14.55 119.43 13.99Q120.49 13.43 121.80 13.43L121.80 13.43Q122.96 13.43 123.88 13.84Q124.80 14.25 125.42 15.02L125.42 15.02L123.91 16.39Q123.09 15.40 121.93 15.40L121.93 15.40Q121.24 15.40 120.71 15.70Q120.17 16 119.88 16.54Q119.58 17.09 119.58 17.80L119.58 17.80Q119.58 18.51 119.88 19.05Q120.17 19.60 120.71 19.90Q121.24 20.20 121.93 20.20L121.93 20.20Q123.09 20.20 123.91 19.22L123.91 19.22L125.42 20.58Q124.81 21.35 123.88 21.76Q122.96 22.17 121.80 22.17L121.80 22.17Q120.49 22.17 119.43 21.61Q118.38 21.05 117.78 20.05Q117.19 19.06 117.19 17.80ZM131.75 15.48L129.16 15.48L129.16 13.60L136.69 13.60L136.69 15.48L134.12 15.48L134.12 22L131.75 22L131.75 15.48Z" fill="#FFFFFF" x="79.6"/></svg>